<svg width="64" height="32" viewBox="0 0 64 32" xmlns="http://www.w3.org/2000/svg">
  <!-- Upper lip -->
  <path d="
    M8,8
    C8,8 16,4 32,4
    C48,4 56,8 56,8
    C56,8 48,12 32,12
    C16,12 8,8 8,8
    Z" 
    fill="#ff6b6b" 
    stroke="#cc0000" 
    stroke-width="1"
  />
  
  <!-- Lower lip -->
  <path d="
    M8,12
    C8,12 16,16 32,16
    C48,16 56,12 56,12
    C56,12 48,20 32,20
    C16,20 8,12 8,12
    Z" 
    fill="#ff6b6b" 
    stroke="#cc0000" 
    stroke-width="1"
  />
  
  <!-- Lip line -->
  <path d="
    M8,8
    C8,8 16,4 32,4
    C48,4 56,8 56,8
    C56,8 48,12 32,12
    C16,12 8,8 8,8
    Z" 
    fill="none" 
    stroke="#990000" 
    stroke-width="0.5"
  />
  
  <!-- Lip shine -->
  <path d="
    M16,6
    C16,6 24,4 32,4
    C40,4 48,6 48,6
    C48,6 40,8 32,8
    C24,8 16,6 16,6
    Z" 
    fill="#ff9999" 
    stroke="none"
  />
</svg> 